<?xml version="1.0" encoding="UTF-8" standalone="no"?>
<!-- Uploaded to: SVG Repo, www.svgrepo.com, Generator: SVG Repo Mixer Tools -->

<svg
   width="800px"
   height="800px"
   viewBox="0 0 24 24"
   fill="none"
   version="1.1"
   id="svg4"
   sodipodi:docname="car-svgrepo-com.svg"
   inkscape:version="1.2.2 (732a01da63, 2022-12-09)"
   xmlns:inkscape="http://www.inkscape.org/namespaces/inkscape"
   xmlns:sodipodi="http://sodipodi.sourceforge.net/DTD/sodipodi-0.dtd"
   xmlns="http://www.w3.org/2000/svg"
   xmlns:svg="http://www.w3.org/2000/svg">
  <defs
     id="defs8" />
  <sodipodi:namedview
     id="namedview6"
     pagecolor="#ffffff"
     bordercolor="#000000"
     borderopacity="0.25"
     inkscape:showpageshadow="2"
     inkscape:pageopacity="0.0"
     inkscape:pagecheckerboard="0"
     inkscape:deskcolor="#d1d1d1"
     showgrid="false"
     inkscape:zoom="1.03625"
     inkscape:cx="237.39445"
     inkscape:cy="399.51749"
     inkscape:window-width="1920"
     inkscape:window-height="1009"
     inkscape:window-x="1912"
     inkscape:window-y="-8"
     inkscape:window-maximized="1"
     inkscape:current-layer="svg4" />
  <path
     stroke="#000000"
     stroke-linecap="round"
     stroke-linejoin="round"
     stroke-width="2"
     d="M17 11h2a2 2 0 0 1 2 2v2a1 1 0 0 1-1 1h-1.5M17 11h-6.5m6.5 0-2.417-4.029A2 2 0 0 0 12.868 6H10.5m0 0v5m0-5H7.64a2 2 0 0 0-1.962 1.608L5 11m5.5 0H5m.5 5H4a1 1 0 0 1-1-1v-2a2 2 0 0 1 2-2v0m.5 5a2 2 0 1 0 4 0m-4 0a2 2 0 1 1 4 0m0 0h5m0 0a2 2 0 1 0 4 0m-4 0a2 2 0 1 1 4 0"
     id="path2"
     style="fill:#ffffff;stroke:#ffffff;stroke-opacity:1" />
</svg>
