<?xml version="1.0" encoding="UTF-8" standalone="no"?>
<!-- Uploaded to: SVG Repo, www.svgrepo.com, Generator: SVG Repo Mixer Tools -->

<svg
   fill="#000000"
   height="800px"
   width="800px"
   version="1.1"
   id="Capa_1"
   viewBox="0 0 481.682 481.682"
   xml:space="preserve"
   sodipodi:docname="train.svg"
   inkscape:version="1.2.2 (732a01da63, 2022-12-09)"
   xmlns:inkscape="http://www.inkscape.org/namespaces/inkscape"
   xmlns:sodipodi="http://sodipodi.sourceforge.net/DTD/sodipodi-0.dtd"
   xmlns="http://www.w3.org/2000/svg"
   xmlns:svg="http://www.w3.org/2000/svg"><defs
   id="defs11" /><sodipodi:namedview
   id="namedview9"
   pagecolor="#ffffff"
   bordercolor="#000000"
   borderopacity="0.25"
   inkscape:showpageshadow="2"
   inkscape:pageopacity="0.0"
   inkscape:pagecheckerboard="0"
   inkscape:deskcolor="#d1d1d1"
   showgrid="false"
   inkscape:zoom="1.03625"
   inkscape:cx="399.51749"
   inkscape:cy="399.51749"
   inkscape:window-width="1920"
   inkscape:window-height="1009"
   inkscape:window-x="1912"
   inkscape:window-y="-8"
   inkscape:window-maximized="1"
   inkscape:current-layer="XMLID_202_" />
<g
   id="XMLID_202_">
	<path
   id="XMLID_207_"
   d="M418.537,194.612C352.231,139.598,268.781,109.4,182.63,109.4H0v100.463v104.808v0.516h22.866   c5.439,10.377,16.19,17.53,28.72,17.53c12.528,0,23.28-7.153,28.718-17.53h74.03c5.438,10.377,16.19,17.53,28.72,17.53   c12.528,0,23.28-7.153,28.72-17.53h74.028c5.439,10.377,16.191,17.53,28.719,17.53s23.28-7.153,28.72-17.53l44.12-0.011   c28.97,0,94.337-23.99,94.321-52.92C481.689,250.502,452.813,223.05,418.537,194.612z M32.053,141.454H182.63   c24.971,0,49.668,3.105,73.794,8.537v36.779c0,14.094,11.434,25.527,25.527,25.527h106.92c3.043,2.355,6.228,4.515,9.203,6.98   c12.042,9.994,21.261,18.108,28.508,24.791H32.053v-34.205V141.454z"
   style="fill:#ffffff" />
	<path
   id="XMLID_206_"
   d="M60.1,214.019h35.058c1.659,0,3.005-1.346,3.005-3.005v-35.058c0-1.659-1.346-3.005-3.005-3.005H60.1   c-1.659,0-3.005,1.346-3.005,3.005v35.058C57.094,212.673,58.44,214.019,60.1,214.019z"
   style="fill:#ffffff" />
	<path
   id="XMLID_205_"
   d="M124.206,214.019h35.058c1.659,0,3.005-1.346,3.005-3.005v-35.058c0-1.659-1.346-3.005-3.005-3.005   h-35.058c-1.659,0-3.005,1.346-3.005,3.005v35.058C121.201,212.673,122.547,214.019,124.206,214.019z"
   style="fill:#ffffff" />
	<path
   id="XMLID_204_"
   d="M188.312,214.019h35.058c1.659,0,3.005-1.346,3.005-3.005v-35.058c0-1.659-1.346-3.005-3.005-3.005   h-35.058c-1.659,0-3.005,1.346-3.005,3.005v35.058C185.307,212.673,186.653,214.019,188.312,214.019z"
   style="fill:#ffffff" />
	
</g>
</svg>
