<?xml version="1.0" encoding="UTF-8" standalone="no"?>
<svg
   version="1.1"
   id="Layer_1"
   x="0px"
   y="0px"
   viewBox="0 0 483.2 483.2"
   style="enable-background:new 0 0 483.2 483.2;"
   xml:space="preserve"
   sodipodi:docname="album_maker.svg"
   inkscape:version="1.1.1 (3bf5ae0d25, 2021-09-20)"
   xmlns:inkscape="http://www.inkscape.org/namespaces/inkscape"
   xmlns:sodipodi="http://sodipodi.sourceforge.net/DTD/sodipodi-0.dtd"
   xmlns="http://www.w3.org/2000/svg"
   xmlns:svg="http://www.w3.org/2000/svg"
   xmlns:rdf="http://www.w3.org/1999/02/22-rdf-syntax-ns#"
   xmlns:cc="http://creativecommons.org/ns#"
   xmlns:dc="http://purl.org/dc/elements/1.1/"><metadata
   id="metadata85"><rdf:RDF><cc:Work
       rdf:about=""><dc:format>image/svg+xml</dc:format><dc:type
         rdf:resource="http://purl.org/dc/dcmitype/StillImage" /><dc:title /></cc:Work></rdf:RDF></metadata><defs
   id="defs83" /><sodipodi:namedview
   pagecolor="#ffffff"
   bordercolor="#666666"
   borderopacity="1"
   objecttolerance="10"
   gridtolerance="10"
   guidetolerance="10"
   inkscape:pageopacity="0"
   inkscape:pageshadow="2"
   inkscape:window-width="1920"
   inkscape:window-height="1007"
   id="namedview81"
   showgrid="false"
   inkscape:zoom="0.62193786"
   inkscape:cx="-57.079657"
   inkscape:cy="356.94884"
   inkscape:window-x="0"
   inkscape:window-y="0"
   inkscape:window-maximized="1"
   inkscape:current-layer="Layer_1"
   inkscape:document-rotation="0"
   inkscape:pagecheckerboard="1" />











<g
   id="g50"
   transform="matrix(1.2676245,0,0,1.2676245,-85.02887,48.148586)">
</g>
<g
   id="g52"
   transform="matrix(1.2676245,0,0,1.2676245,-85.02887,48.148586)">
</g>
<g
   id="g54"
   transform="matrix(1.2676245,0,0,1.2676245,-85.02887,48.148586)">
</g>
<g
   id="g56"
   transform="matrix(1.2676245,0,0,1.2676245,-85.02887,48.148586)">
</g>
<g
   id="g58"
   transform="matrix(1.2676245,0,0,1.2676245,-85.02887,48.148586)">
</g>
<g
   id="g60"
   transform="matrix(1.2676245,0,0,1.2676245,-85.02887,48.148586)">
</g>
<g
   id="g62"
   transform="matrix(1.2676245,0,0,1.2676245,-85.02887,48.148586)">
</g>
<g
   id="g64"
   transform="matrix(1.2676245,0,0,1.2676245,-85.02887,48.148586)">
</g>
<g
   id="g66"
   transform="matrix(1.2676245,0,0,1.2676245,-85.02887,48.148586)">
</g>
<g
   id="g68"
   transform="matrix(1.2676245,0,0,1.2676245,-85.02887,48.148586)">
</g>
<g
   id="g70"
   transform="matrix(1.2676245,0,0,1.2676245,-85.02887,48.148586)">
</g>
<g
   id="g72"
   transform="matrix(1.2676245,0,0,1.2676245,-85.02887,48.148586)">
</g>
<g
   id="g74"
   transform="matrix(1.2676245,0,0,1.2676245,-85.02887,48.148586)">
</g>
<g
   id="g76"
   transform="matrix(1.2676245,0,0,1.2676245,-85.02887,48.148586)">
</g>
<g
   id="g78"
   transform="matrix(1.2676245,0,0,1.2676245,-85.02887,48.148586)">
</g>
<path
   style="fill:#9ce0ff;stroke-width:1.05467"
   d="M 348.11377,413.0787 H 78.117862 c -18.562219,0 -33.749485,-15.18727 -33.749485,-33.74949 v -236.2464 c 0,-18.56223 15.187266,-33.74949 33.749485,-33.74949 H 348.11377 c 18.56221,0 33.74948,15.18726 33.74948,33.74949 v 236.2464 c 0,18.56222 -15.18727,33.74949 -33.74948,33.74949 z"
   id="path2" /><path
   style="fill:#00aeef;stroke-width:1.05467"
   d="M 348.11377,421.51607 H 78.117862 c -23.202777,0 -42.186852,-18.98408 -42.186852,-42.18686 v -236.2464 c 0,-23.20278 18.984075,-42.18688 42.186852,-42.18688 H 318.58297 c 4.64054,0 8.43737,3.79683 8.43737,8.43739 0,4.64054 -3.79683,8.43737 -8.43737,8.43737 H 78.117862 c -13.921661,0 -25.312112,11.39044 -25.312112,25.31212 v 236.2464 c 0,13.92166 11.390451,25.31212 25.312112,25.31212 H 348.11377 c 13.92166,0 25.31211,-11.39046 25.31211,-25.31212 V 202.1444 c 0,-4.64056 3.79682,-8.43737 8.43737,-8.43737 4.64056,0 8.43738,3.79681 8.43738,8.43737 v 177.18481 c 0,23.20278 -18.98409,42.18686 -42.18686,42.18686 z"
   id="path4" /><path
   style="fill:#ffc33b;stroke-width:1.05467"
   d="M 362.45729,73.896344 216.0689,220.70662 c -1.68747,1.68747 -2.53121,3.79681 -2.53121,5.90617 v 67.92083 h 67.92084 c 2.10934,0 4.21868,-0.84373 5.90615,-2.53121 L 434.17495,145.19215"
   id="path6" /><path
   style="fill:#f5e6c6;stroke-width:1.05467"
   d="m 218.17824,223.23784 h 24.46838 c 2.53122,0 4.21869,1.68747 4.21869,4.21868 v 29.5308 c 0,2.53121 1.68747,4.21869 4.21868,4.21869 h 29.5308 c 2.53121,0 4.21869,1.68747 4.21869,4.21868 v 27.84333 h -66.65524 z"
   id="path8" /><path
   style="fill:#c39215;stroke-width:1.05467"
   d="m 281.45853,302.97099 h -67.92084 c -4.64056,0 -8.43738,-3.79681 -8.43738,-8.43737 v -67.92083 c 0,-4.64056 1.68748,-8.85925 5.06243,-11.81232 L 356.55114,67.990183 c 3.37495,-3.374949 8.43737,-3.374949 11.81232,0 3.37495,3.374949 3.37495,8.437376 0,11.812325 L 221.97506,226.61279 v 59.48346 h 59.48347 L 428.2688,139.28598 c 3.37495,-3.37495 8.43737,-3.37495 11.81232,0 3.37495,3.37495 3.37495,8.43737 0,11.81232 L 293.27085,297.90857 c -2.95308,3.37495 -7.17176,5.06242 -11.81232,5.06242 z"
   id="path10" /><path
   style="fill:#f285f7;stroke-width:1.05467"
   d="m 362.45729,73.896344 71.71766,71.717666 17.71849,-17.71849 c 13.07793,-13.07791 13.07793,-34.593216 0,-47.671146 L 427.84693,56.177863 c -13.07793,-13.077926 -34.59323,-13.077926 -47.67115,0 z"
   id="path12" /><path
   style="fill:#e229cc;stroke-width:1.05467"
   d="m 434.17495,154.05139 c -2.10934,0 -4.21868,-0.84374 -5.90615,-2.53121 L 356.55114,79.802508 c -3.37495,-3.374949 -3.37495,-8.437376 0,-11.812325 l 17.71847,-17.71848 c 16.45288,-16.452875 43.03061,-16.452875 59.48348,0 l 24.0465,24.046509 c 8.01551,8.015502 12.23419,18.562227 12.23419,29.952668 0,11.39046 -4.21868,21.93717 -12.23419,29.95268 l -17.71847,17.71849 c -1.68748,1.2656 -3.79682,2.10934 -5.90617,2.10934 z m -59.90534,-80.155046 59.90534,59.905346 11.81232,-11.81232 c 4.64056,-4.64056 7.17178,-10.96858 7.17178,-17.71849 0,-6.749896 -2.53122,-13.077916 -7.17178,-17.718474 L 421.94076,62.505892 c -9.70296,-9.702978 -25.73398,-9.702978 -35.85883,0 z"
   id="path14" /><path
   style="fill:#c39215;stroke-width:1.05467"
   d="m 284.83348,301.7054 c -4.64056,0 -8.43737,-3.79683 -8.43737,-8.43738 v -23.62464 h -25.31212 c -7.17176,0 -12.65605,-5.48429 -12.65605,-12.65606 v -25.31211 h -20.2497 c -4.64055,0 -8.43737,-3.79683 -8.43737,-8.43737 0,-4.64056 3.79682,-8.43737 8.43737,-8.43737 h 24.46838 c 7.17176,0 12.65606,5.48428 12.65606,12.65605 v 25.31212 h 25.31211 c 7.17177,0 12.65606,5.48428 12.65606,12.65605 v 27.84333 c 0,4.64055 -3.79681,8.43738 -8.43737,8.43738 z m -42.18686,-70.03019 z"
   id="path16" /><path
   style="fill:#6b513a;stroke-width:1.05467"
   d="m 204.67845,311.83024 c -2.10934,0 -4.21869,-0.84374 -5.90617,-2.53122 -3.37495,-3.37495 -3.37495,-8.43737 0,-11.81232 l 5.90617,-5.90615 c 3.37495,-3.37495 8.43737,-3.37495 11.81232,0 3.37495,3.37495 3.37495,8.43737 0,11.81232 l -5.90617,5.90615 c -1.68747,1.68748 -3.79681,2.53122 -5.90615,2.53122 z"
   id="path18" /><g
   id="g20"
   transform="matrix(1.2676245,0,0,1.2676245,-12.985435,27.954291)" /><g
   id="g22"
   transform="matrix(1.2676245,0,0,1.2676245,-12.985435,27.954291)" /><g
   id="g24"
   transform="matrix(1.2676245,0,0,1.2676245,-12.985435,27.954291)" /><g
   id="g26"
   transform="matrix(1.2676245,0,0,1.2676245,-12.985435,27.954291)" /><g
   id="g28"
   transform="matrix(1.2676245,0,0,1.2676245,-12.985435,27.954291)" /><g
   id="g30"
   transform="matrix(1.2676245,0,0,1.2676245,-12.985435,27.954291)" /><g
   id="g32"
   transform="matrix(1.2676245,0,0,1.2676245,-12.985435,27.954291)" /><g
   id="g34"
   transform="matrix(1.2676245,0,0,1.2676245,-12.985435,27.954291)" /><g
   id="g36"
   transform="matrix(1.2676245,0,0,1.2676245,-12.985435,27.954291)" /><g
   id="g38"
   transform="matrix(1.2676245,0,0,1.2676245,-12.985435,27.954291)" /><g
   id="g40"
   transform="matrix(1.2676245,0,0,1.2676245,-12.985435,27.954291)" /><g
   id="g42"
   transform="matrix(1.2676245,0,0,1.2676245,-12.985435,27.954291)" /><g
   id="g44"
   transform="matrix(1.2676245,0,0,1.2676245,-12.985435,27.954291)" /><g
   id="g46"
   transform="matrix(1.2676245,0,0,1.2676245,-12.985435,27.954291)" /><g
   id="g48"
   transform="matrix(1.2676245,0,0,1.2676245,-12.985435,27.954291)" /></svg>
